<mxfile host="app.diagrams.net" agent="Mozilla/5.0 (Windows NT 10.0; Win64; x64) AppleWebKit/537.36 (KHTML, like Gecko) Chrome/135.0.0.0 Safari/537.36" version="26.2.13">
  <diagram id="6fhkvwcGd_MmWfRwUABA" name="PÃ¡gina-2">
    <mxGraphModel grid="1" page="1" gridSize="10" guides="0" tooltips="1" connect="0" arrows="0" fold="1" pageScale="1" pageWidth="827" pageHeight="1169" math="0" shadow="0">
      <root>
        <mxCell id="0" />
        <mxCell id="1" parent="0" />
        <mxCell id="1H0GYz0gQWj5M4hLD7Oz-24" value="&lt;div&gt;&lt;br&gt;&lt;/div&gt;&lt;div&gt;&lt;br&gt;&lt;/div&gt;&lt;div&gt;&lt;br&gt;&lt;/div&gt;&lt;div&gt;&lt;br&gt;&lt;/div&gt;&lt;div&gt;&lt;br&gt;&lt;/div&gt;&lt;div&gt;&lt;br&gt;&lt;/div&gt;&lt;div&gt;&lt;br&gt;&lt;/div&gt;&lt;div&gt;&lt;br&gt;&lt;/div&gt;&lt;div&gt;&lt;br&gt;&lt;/div&gt;&lt;div&gt;&lt;br&gt;&lt;/div&gt;&lt;div style=&quot;text-align: right;&quot;&gt;&lt;b&gt;&lt;span style=&quot;white-space: pre;&quot;&gt;&#x9;&lt;/span&gt;&lt;span style=&quot;white-space: pre;&quot;&gt;&#x9;&lt;/span&gt;Output: &lt;/b&gt;regular expresions&lt;/div&gt;" style="rounded=0;whiteSpace=wrap;html=1;fillColor=#dae8fc;strokeColor=none;" vertex="1" parent="1">
          <mxGeometry x="244" y="337" width="220" height="160" as="geometry" />
        </mxCell>
        <mxCell id="1H0GYz0gQWj5M4hLD7Oz-21" value="" style="rounded=0;whiteSpace=wrap;html=1;fillColor=#dae8fc;strokeColor=none;" vertex="1" parent="1">
          <mxGeometry x="243" y="150" width="220" height="160" as="geometry" />
        </mxCell>
        <mxCell id="1H0GYz0gQWj5M4hLD7Oz-2" value="&lt;div&gt;&lt;br&gt;&lt;/div&gt;&lt;div&gt;&lt;br&gt;&lt;/div&gt;&lt;div&gt;&lt;br&gt;&lt;/div&gt;&lt;div&gt;&lt;br&gt;&lt;/div&gt;&lt;div&gt;&lt;br&gt;&lt;/div&gt;&lt;div&gt;&lt;br&gt;&lt;/div&gt;&lt;div&gt;&lt;br&gt;&lt;/div&gt;&lt;div&gt;&lt;br&gt;&lt;/div&gt;&lt;div&gt;&lt;br&gt;&lt;/div&gt;&lt;div&gt;&lt;br&gt;&lt;/div&gt;&lt;div style=&quot;text-align: right;&quot;&gt;&lt;b&gt;&lt;span style=&quot;white-space: pre;&quot;&gt;&#x9;&lt;/span&gt;&lt;span style=&quot;white-space: pre;&quot;&gt;&#x9;&lt;/span&gt;&lt;span style=&quot;white-space: pre;&quot;&gt;&#x9;&lt;/span&gt;&lt;span style=&quot;white-space: pre;&quot;&gt;&#x9;&lt;/span&gt;Input: &lt;/b&gt;labeled texts&lt;/div&gt;" style="rounded=0;whiteSpace=wrap;html=1;fillColor=#dae8fc;strokeColor=none;" vertex="1" parent="1">
          <mxGeometry x="-60" y="150" width="220" height="160" as="geometry" />
        </mxCell>
        <mxCell id="4VrwYn0WhIvjb9f-FlC--1" value="" style="group" connectable="0" vertex="1" parent="1">
          <mxGeometry x="294" y="360" width="153" height="117" as="geometry" />
        </mxCell>
        <mxCell id="vjj_7zM2Srtnj2ULF8l7-1" value="&lt;font color=&quot;#0080ff&quot; size=&quot;1&quot;&gt;&lt;b&gt;&lt;font style=&quot;font-size: 14px;&quot;&gt;&amp;lt;RegEx/&amp;gt;&lt;/font&gt;&lt;/b&gt;&lt;/font&gt;" style="rounded=0;whiteSpace=wrap;html=1;strokeColor=none;fillColor=none;container=0;" vertex="1" parent="4VrwYn0WhIvjb9f-FlC--1">
          <mxGeometry y="27.999999999999986" width="103.12819958609417" height="49" as="geometry" />
        </mxCell>
        <mxCell id="vjj_7zM2Srtnj2ULF8l7-2" value="" style="endArrow=classic;html=1;rounded=0;fontSize=16;fontColor=#007FFF;strokeWidth=3;" edge="1" parent="4VrwYn0WhIvjb9f-FlC--1">
          <mxGeometry width="50" height="50" relative="1" as="geometry">
            <mxPoint x="48.12649314017729" y="41.99999999999998" as="sourcePoint" />
            <mxPoint x="48.12649314017729" as="targetPoint" />
          </mxGeometry>
        </mxCell>
        <mxCell id="vjj_7zM2Srtnj2ULF8l7-3" value="" style="endArrow=classic;html=1;rounded=0;fontSize=16;fontColor=#007FFF;strokeWidth=3;" edge="1" parent="4VrwYn0WhIvjb9f-FlC--1">
          <mxGeometry width="50" height="50" relative="1" as="geometry">
            <mxPoint x="48.12649314017729" y="62.99999999999995" as="sourcePoint" />
            <mxPoint x="20.625639917218855" y="98" as="targetPoint" />
          </mxGeometry>
        </mxCell>
        <mxCell id="vjj_7zM2Srtnj2ULF8l7-4" value="" style="ellipse;whiteSpace=wrap;html=1;aspect=fixed;fontSize=16;fontColor=#ffffff;fillColor=#990000;strokeColor=none;container=0;" vertex="1" parent="4VrwYn0WhIvjb9f-FlC--1">
          <mxGeometry x="68.7521330573961" y="27.999999999999986" width="12.743698948853067" height="12.743698948853067" as="geometry" />
        </mxCell>
        <mxCell id="vjj_7zM2Srtnj2ULF8l7-5" value="" style="triangle;whiteSpace=wrap;html=1;fontSize=16;fontColor=#007FFF;fillColor=#003300;direction=north;strokeColor=none;container=0;" vertex="1" parent="4VrwYn0WhIvjb9f-FlC--1">
          <mxGeometry x="51.56409979304712" y="69.99999999999997" width="13.750426611479224" height="14" as="geometry" />
        </mxCell>
        <mxCell id="vjj_7zM2Srtnj2ULF8l7-6" value="" style="whiteSpace=wrap;html=1;aspect=fixed;fontSize=16;fontColor=#007FFF;fillColor=#004080;strokeColor=none;container=0;" vertex="1" parent="4VrwYn0WhIvjb9f-FlC--1">
          <mxGeometry y="7.000000000000019" width="12.743698948853067" height="12.743698948853067" as="geometry" />
        </mxCell>
        <mxCell id="vjj_7zM2Srtnj2ULF8l7-7" value="" style="whiteSpace=wrap;html=1;aspect=fixed;fontSize=16;fontColor=#007FFF;fillColor=#004080;strokeColor=none;container=0;" vertex="1" parent="4VrwYn0WhIvjb9f-FlC--1">
          <mxGeometry x="20.625639917218855" y="20.999999999999968" width="12.743698948853067" height="12.743698948853067" as="geometry" />
        </mxCell>
        <mxCell id="vjj_7zM2Srtnj2ULF8l7-8" value="" style="ellipse;whiteSpace=wrap;html=1;aspect=fixed;fontSize=16;fontColor=#ffffff;fillColor=#990000;strokeColor=none;container=0;" vertex="1" parent="4VrwYn0WhIvjb9f-FlC--1">
          <mxGeometry x="68.7521330573961" y="7.000000000000019" width="12.743698948853067" height="12.743698948853067" as="geometry" />
        </mxCell>
        <mxCell id="vjj_7zM2Srtnj2ULF8l7-9" value="" style="triangle;whiteSpace=wrap;html=1;fontSize=16;fontColor=#007FFF;fillColor=#003300;direction=north;strokeColor=none;container=0;" vertex="1" parent="4VrwYn0WhIvjb9f-FlC--1">
          <mxGeometry x="75.62734636313571" y="62.99999999999995" width="13.750426611479224" height="14" as="geometry" />
        </mxCell>
        <mxCell id="vjj_7zM2Srtnj2ULF8l7-10" value="" style="endArrow=classic;html=1;rounded=0;fontSize=16;fontColor=#007FFF;strokeWidth=3;" edge="1" parent="4VrwYn0WhIvjb9f-FlC--1">
          <mxGeometry width="50" height="50" relative="1" as="geometry">
            <mxPoint x="81.49880548785816" y="52.23575000000001" as="sourcePoint" />
            <mxPoint x="119.99999999999999" y="52.23575000000001" as="targetPoint" />
          </mxGeometry>
        </mxCell>
        <mxCell id="4VrwYn0WhIvjb9f-FlC--2" value="" style="group" connectable="0" vertex="1" parent="1">
          <mxGeometry x="-15" y="160" width="175" height="157" as="geometry" />
        </mxCell>
        <mxCell id="yEo_-yBG_-YmFeumwMSU-1" value="&lt;font style=&quot;font-size: 14px;&quot;&gt;obesity&lt;br&gt;smoker&lt;/font&gt;" style="strokeWidth=1;shadow=0;dashed=0;align=center;html=1;shape=mxgraph.mockup.text.stickyNote2;mainText=;fontSize=17;whiteSpace=wrap;fillColor=#eeeeee;strokeColor=#36393d;" vertex="1" parent="4VrwYn0WhIvjb9f-FlC--2">
          <mxGeometry x="69.69072164948453" width="60.30927835051548" height="67.16417910447761" as="geometry" />
        </mxCell>
        <mxCell id="yEo_-yBG_-YmFeumwMSU-2" value="&lt;font style=&quot;font-size: 14px;&quot;&gt;obesity&lt;br&gt;smoker&lt;/font&gt;" style="strokeWidth=1;shadow=0;dashed=0;align=center;html=1;shape=mxgraph.mockup.text.stickyNote2;mainText=;fontSize=17;whiteSpace=wrap;fillColor=#eeeeee;strokeColor=#36393d;" vertex="1" parent="4VrwYn0WhIvjb9f-FlC--2">
          <mxGeometry x="34.845360824742265" y="25.970149253731343" width="60.30927835051548" height="67.16417910447761" as="geometry" />
        </mxCell>
        <mxCell id="yEo_-yBG_-YmFeumwMSU-3" value="&lt;font style=&quot;font-size: 14px;&quot;&gt;obesity&lt;br&gt;smoker&lt;/font&gt;" style="strokeWidth=1;shadow=0;dashed=0;align=center;html=1;shape=mxgraph.mockup.text.stickyNote2;mainText=;fontSize=17;whiteSpace=wrap;fillColor=#eeeeee;strokeColor=#36393d;" vertex="1" parent="4VrwYn0WhIvjb9f-FlC--2">
          <mxGeometry y="52.83582089552238" width="60.30927835051548" height="67.16417910447761" as="geometry" />
        </mxCell>
        <mxCell id="1H0GYz0gQWj5M4hLD7Oz-19" value="" style="endArrow=classic;html=1;rounded=0;" edge="1" parent="4VrwYn0WhIvjb9f-FlC--2">
          <mxGeometry width="50" height="50" relative="1" as="geometry">
            <mxPoint x="65" y="150" as="sourcePoint" />
            <mxPoint x="65" y="177" as="targetPoint" />
          </mxGeometry>
        </mxCell>
        <mxCell id="4VrwYn0WhIvjb9f-FlC--14" value="(1)" style="text;html=1;align=center;verticalAlign=middle;resizable=0;points=[];autosize=1;strokeColor=none;fillColor=none;" vertex="1" parent="1">
          <mxGeometry x="180" y="190" width="40" height="30" as="geometry" />
        </mxCell>
        <mxCell id="4VrwYn0WhIvjb9f-FlC--15" value="(2)" style="text;html=1;align=center;verticalAlign=middle;resizable=0;points=[];autosize=1;strokeColor=none;fillColor=none;" vertex="1" parent="1">
          <mxGeometry x="180" y="230" width="40" height="30" as="geometry" />
        </mxCell>
        <mxCell id="4VrwYn0WhIvjb9f-FlC--16" value="(4)" style="text;html=1;align=center;verticalAlign=middle;resizable=0;points=[];autosize=1;strokeColor=none;fillColor=none;" vertex="1" parent="1">
          <mxGeometry x="180" y="392" width="40" height="30" as="geometry" />
        </mxCell>
        <mxCell id="4VrwYn0WhIvjb9f-FlC--17" value="(3)" style="text;html=1;align=center;verticalAlign=middle;resizable=0;points=[];autosize=1;strokeColor=none;fillColor=none;" vertex="1" parent="1">
          <mxGeometry x="60" y="312" width="40" height="30" as="geometry" />
        </mxCell>
        <mxCell id="4VrwYn0WhIvjb9f-FlC--65" value="" style="group" connectable="0" vertex="1" parent="1">
          <mxGeometry x="288" y="167" width="163.5" height="153" as="geometry" />
        </mxCell>
        <mxCell id="4VrwYn0WhIvjb9f-FlC--19" value="" style="endArrow=none;html=1;rounded=0;strokeWidth=3;fillColor=#a0522d;strokeColor=#6D1F00;" edge="1" parent="4VrwYn0WhIvjb9f-FlC--65">
          <mxGeometry width="50" height="50" relative="1" as="geometry">
            <mxPoint x="76" y="18" as="sourcePoint" />
            <mxPoint x="146" y="18" as="targetPoint" />
          </mxGeometry>
        </mxCell>
        <mxCell id="4VrwYn0WhIvjb9f-FlC--20" value="" style="endArrow=none;html=1;rounded=0;strokeWidth=3;fillColor=#a0522d;strokeColor=#6D1F00;" edge="1" parent="4VrwYn0WhIvjb9f-FlC--65">
          <mxGeometry width="50" height="50" relative="1" as="geometry">
            <mxPoint x="77" y="37" as="sourcePoint" />
            <mxPoint x="77" y="16.5" as="targetPoint" />
          </mxGeometry>
        </mxCell>
        <mxCell id="4VrwYn0WhIvjb9f-FlC--21" value="" style="endArrow=none;html=1;rounded=0;strokeWidth=3;fillColor=#a0522d;strokeColor=#6D1F00;" edge="1" parent="4VrwYn0WhIvjb9f-FlC--65">
          <mxGeometry width="50" height="50" relative="1" as="geometry">
            <mxPoint x="145" y="37" as="sourcePoint" />
            <mxPoint x="145" y="16.5" as="targetPoint" />
          </mxGeometry>
        </mxCell>
        <mxCell id="4VrwYn0WhIvjb9f-FlC--22" value="" style="endArrow=none;html=1;rounded=0;strokeWidth=3;fillColor=#a0522d;strokeColor=#6D1F00;" edge="1" parent="4VrwYn0WhIvjb9f-FlC--65">
          <mxGeometry width="50" height="50" relative="1" as="geometry">
            <mxPoint x="45.5" y="37" as="sourcePoint" />
            <mxPoint x="108.35" y="37" as="targetPoint" />
          </mxGeometry>
        </mxCell>
        <mxCell id="4VrwYn0WhIvjb9f-FlC--23" value="" style="endArrow=none;html=1;rounded=0;strokeWidth=3;fillColor=#a0522d;strokeColor=#6D1F00;" edge="1" parent="4VrwYn0WhIvjb9f-FlC--65">
          <mxGeometry width="50" height="50" relative="1" as="geometry">
            <mxPoint x="47" y="57" as="sourcePoint" />
            <mxPoint x="47" y="37" as="targetPoint" />
          </mxGeometry>
        </mxCell>
        <mxCell id="4VrwYn0WhIvjb9f-FlC--24" value="" style="endArrow=none;html=1;rounded=0;strokeWidth=3;fillColor=#a0522d;strokeColor=#6D1F00;" edge="1" parent="4VrwYn0WhIvjb9f-FlC--65">
          <mxGeometry width="50" height="50" relative="1" as="geometry">
            <mxPoint x="106.84000000000003" y="57" as="sourcePoint" />
            <mxPoint x="106.84000000000003" y="37" as="targetPoint" />
          </mxGeometry>
        </mxCell>
        <mxCell id="4VrwYn0WhIvjb9f-FlC--25" value="&lt;font style=&quot;font-size: 14px;&quot;&gt;obese&lt;/font&gt;" style="text;html=1;align=center;verticalAlign=middle;resizable=0;points=[];autosize=1;strokeColor=none;fillColor=none;fontSize=16;" vertex="1" parent="4VrwYn0WhIvjb9f-FlC--65">
          <mxGeometry x="17" y="52" width="60" height="30" as="geometry" />
        </mxCell>
        <mxCell id="4VrwYn0WhIvjb9f-FlC--26" value="&lt;font style=&quot;font-size: 14px;&quot;&gt;obesity&lt;/font&gt;" style="text;html=1;align=center;verticalAlign=middle;resizable=0;points=[];autosize=1;strokeColor=none;fillColor=none;fontSize=16;" vertex="1" parent="4VrwYn0WhIvjb9f-FlC--65">
          <mxGeometry x="72" y="52" width="70" height="30" as="geometry" />
        </mxCell>
        <mxCell id="4VrwYn0WhIvjb9f-FlC--32" value="" style="whiteSpace=wrap;html=1;aspect=fixed;strokeColor=#005700;fillColor=#008a00;fontColor=#ffffff;" vertex="1" parent="4VrwYn0WhIvjb9f-FlC--65">
          <mxGeometry x="37" y="77" width="15" height="15" as="geometry" />
        </mxCell>
        <mxCell id="4VrwYn0WhIvjb9f-FlC--33" value="" style="whiteSpace=wrap;html=1;aspect=fixed;strokeColor=#6F0000;fillColor=#a20025;fontColor=#ffffff;" vertex="1" parent="4VrwYn0WhIvjb9f-FlC--65">
          <mxGeometry x="52" y="77" width="15" height="15" as="geometry" />
        </mxCell>
        <mxCell id="4VrwYn0WhIvjb9f-FlC--34" value="" style="whiteSpace=wrap;html=1;aspect=fixed;strokeColor=#005700;fillColor=#008a00;fontColor=#ffffff;" vertex="1" parent="4VrwYn0WhIvjb9f-FlC--65">
          <mxGeometry x="67" y="77" width="15" height="15" as="geometry" />
        </mxCell>
        <mxCell id="4VrwYn0WhIvjb9f-FlC--35" value="" style="whiteSpace=wrap;html=1;aspect=fixed;strokeColor=#6F0000;fillColor=#a20025;fontColor=#ffffff;" vertex="1" parent="4VrwYn0WhIvjb9f-FlC--65">
          <mxGeometry x="82" y="77" width="15" height="15" as="geometry" />
        </mxCell>
        <mxCell id="4VrwYn0WhIvjb9f-FlC--36" value="" style="whiteSpace=wrap;html=1;aspect=fixed;strokeColor=#005700;fillColor=#008a00;fontColor=#ffffff;" vertex="1" parent="4VrwYn0WhIvjb9f-FlC--65">
          <mxGeometry x="97" y="77" width="15" height="15" as="geometry" />
        </mxCell>
        <mxCell id="4VrwYn0WhIvjb9f-FlC--37" value="" style="whiteSpace=wrap;html=1;aspect=fixed;strokeColor=#005700;fillColor=#008a00;fontColor=#ffffff;" vertex="1" parent="4VrwYn0WhIvjb9f-FlC--65">
          <mxGeometry x="37" y="92" width="15" height="15" as="geometry" />
        </mxCell>
        <mxCell id="4VrwYn0WhIvjb9f-FlC--38" value="" style="whiteSpace=wrap;html=1;aspect=fixed;strokeColor=#6F0000;fillColor=#a20025;fontColor=#ffffff;" vertex="1" parent="4VrwYn0WhIvjb9f-FlC--65">
          <mxGeometry x="52" y="92" width="15" height="15" as="geometry" />
        </mxCell>
        <mxCell id="4VrwYn0WhIvjb9f-FlC--39" value="" style="whiteSpace=wrap;html=1;aspect=fixed;strokeColor=#6F0000;fillColor=#a20025;fontColor=#ffffff;" vertex="1" parent="4VrwYn0WhIvjb9f-FlC--65">
          <mxGeometry x="67" y="92" width="15" height="15" as="geometry" />
        </mxCell>
        <mxCell id="4VrwYn0WhIvjb9f-FlC--40" value="" style="whiteSpace=wrap;html=1;aspect=fixed;strokeColor=#6F0000;fillColor=#a20025;fontColor=#ffffff;" vertex="1" parent="4VrwYn0WhIvjb9f-FlC--65">
          <mxGeometry x="82" y="92" width="15" height="15" as="geometry" />
        </mxCell>
        <mxCell id="4VrwYn0WhIvjb9f-FlC--41" value="" style="whiteSpace=wrap;html=1;aspect=fixed;strokeColor=#005700;fillColor=#008a00;fontColor=#ffffff;" vertex="1" parent="4VrwYn0WhIvjb9f-FlC--65">
          <mxGeometry x="97" y="92" width="15" height="15" as="geometry" />
        </mxCell>
        <mxCell id="4VrwYn0WhIvjb9f-FlC--52" value="&lt;font style=&quot;font-size: 14px;&quot;&gt;(?:\w)?obes(?:\w)?&lt;/font&gt;" style="text;html=1;align=center;verticalAlign=middle;resizable=0;points=[];autosize=1;strokeColor=none;fillColor=none;fontSize=16;" vertex="1" parent="4VrwYn0WhIvjb9f-FlC--65">
          <mxGeometry x="6.25" y="115" width="140" height="30" as="geometry" />
        </mxCell>
        <mxCell id="4VrwYn0WhIvjb9f-FlC--54" value="" style="shape=curlyBracket;whiteSpace=wrap;html=1;rounded=1;flipH=1;labelPosition=right;verticalLabelPosition=middle;align=left;verticalAlign=middle;rotation=90;strokeWidth=3;" vertex="1" parent="4VrwYn0WhIvjb9f-FlC--65">
          <mxGeometry x="69" y="98" width="11" height="36" as="geometry" />
        </mxCell>
        <mxCell id="4VrwYn0WhIvjb9f-FlC--58" value="" style="endArrow=none;html=1;rounded=0;strokeWidth=3;fillColor=#a0522d;strokeColor=#6D1F00;" edge="1" parent="4VrwYn0WhIvjb9f-FlC--65">
          <mxGeometry width="50" height="50" relative="1" as="geometry">
            <mxPoint x="117.5" y="17" as="sourcePoint" />
            <mxPoint x="117.5" y="-5" as="targetPoint" />
          </mxGeometry>
        </mxCell>
        <mxCell id="4VrwYn0WhIvjb9f-FlC--60" value="&lt;font style=&quot;font-size: 14px;&quot;&gt;Levenshtein&lt;/font&gt;" style="text;html=1;strokeColor=none;fillColor=none;align=center;verticalAlign=middle;whiteSpace=wrap;rounded=0;rotation=-90;" vertex="1" parent="4VrwYn0WhIvjb9f-FlC--65">
          <mxGeometry x="-15" y="15" width="60" height="30" as="geometry" />
        </mxCell>
        <mxCell id="4VrwYn0WhIvjb9f-FlC--62" value="&lt;span style=&quot;font-size: 14px;&quot;&gt;(...)&lt;/span&gt;" style="text;html=1;align=center;verticalAlign=middle;resizable=0;points=[];autosize=1;strokeColor=none;fillColor=none;fontSize=16;" vertex="1" parent="4VrwYn0WhIvjb9f-FlC--65">
          <mxGeometry x="123.5" y="29" width="40" height="30" as="geometry" />
        </mxCell>
        <mxCell id="4VrwYn0WhIvjb9f-FlC--63" value="" style="endArrow=classic;html=1;rounded=0;" edge="1" parent="4VrwYn0WhIvjb9f-FlC--65">
          <mxGeometry width="50" height="50" relative="1" as="geometry">
            <mxPoint x="34.5" y="59" as="sourcePoint" />
            <mxPoint x="34.5" y="-5" as="targetPoint" />
          </mxGeometry>
        </mxCell>
        <mxCell id="1H0GYz0gQWj5M4hLD7Oz-17" value="" style="endArrow=classic;html=1;rounded=0;entryX=0.003;entryY=0.439;entryDx=0;entryDy=0;entryPerimeter=0;" edge="1" parent="1">
          <mxGeometry width="50" height="50" relative="1" as="geometry">
            <mxPoint x="160" y="220" as="sourcePoint" />
            <mxPoint x="243.66000000000008" y="220.24" as="targetPoint" />
          </mxGeometry>
        </mxCell>
        <mxCell id="1H0GYz0gQWj5M4hLD7Oz-20" value="" style="endArrow=classic;html=1;rounded=0;entryX=0.003;entryY=0.439;entryDx=0;entryDy=0;entryPerimeter=0;" edge="1" parent="1">
          <mxGeometry width="50" height="50" relative="1" as="geometry">
            <mxPoint x="160" y="422" as="sourcePoint" />
            <mxPoint x="244" y="422" as="targetPoint" />
          </mxGeometry>
        </mxCell>
        <mxCell id="1H0GYz0gQWj5M4hLD7Oz-22" value="&lt;div&gt;&lt;br&gt;&lt;/div&gt;&lt;div&gt;&lt;br&gt;&lt;/div&gt;&lt;div&gt;&lt;br&gt;&lt;/div&gt;&lt;div&gt;&lt;br&gt;&lt;/div&gt;&lt;div&gt;&lt;br&gt;&lt;/div&gt;&lt;div&gt;&lt;br&gt;&lt;/div&gt;&lt;div&gt;&lt;br&gt;&lt;/div&gt;&lt;div&gt;&lt;br&gt;&lt;/div&gt;&lt;div&gt;&lt;br&gt;&lt;/div&gt;&lt;div&gt;&lt;br&gt;&lt;/div&gt;&lt;div style=&quot;text-align: right;&quot;&gt;&lt;br&gt;&lt;/div&gt;" style="rounded=0;whiteSpace=wrap;html=1;fillColor=#dae8fc;strokeColor=none;" vertex="1" parent="1">
          <mxGeometry x="-60" y="337" width="220" height="160" as="geometry" />
        </mxCell>
        <mxCell id="4VrwYn0WhIvjb9f-FlC--8" value="&lt;div&gt;&lt;span style=&quot;background-color: initial;&quot;&gt;&amp;nbsp;&lt;/span&gt;&lt;/div&gt;&lt;div&gt;&lt;span style=&quot;background-color: initial;&quot;&gt;patient suffers from &lt;b&gt;morbid obesity&lt;/b&gt;&lt;/span&gt;&lt;/div&gt;&lt;div&gt;&lt;b&gt;morbid obese&lt;/b&gt; imc 45.1&lt;/div&gt;&lt;div&gt;&lt;br&gt;&lt;/div&gt;&lt;div&gt;&lt;br&gt;&lt;/div&gt;&lt;div&gt;&lt;span style=&quot;background-color: initial;&quot;&gt;patient suffers from &lt;/span&gt;&lt;b style=&quot;background-color: initial;&quot;&gt;morbid&amp;nbsp;&lt;/b&gt;&lt;span style=&quot;background-color: initial; text-wrap: nowrap; color: rgb(0, 0, 0);&quot;&gt;&lt;b&gt;(?:\w)?obes(?:\w)?&lt;/b&gt;&lt;/span&gt;&lt;/div&gt;&lt;div&gt;&lt;div&gt;&lt;b&gt;morbid&amp;nbsp;&lt;/b&gt;&lt;span style=&quot;color: rgb(0, 0, 0); text-wrap: nowrap;&quot;&gt;&lt;b&gt;(?:\w)?obes(?:\w)&lt;/b&gt;&amp;nbsp;&lt;/span&gt;&lt;/div&gt;&lt;div&gt;imc \d+&lt;/div&gt;&lt;div&gt;&lt;br&gt;&lt;/div&gt;&lt;/div&gt;" style="whiteSpace=wrap;html=1;aspect=fixed;dashed=1;strokeColor=none;fillColor=#dae8fc;" vertex="1" parent="1">
          <mxGeometry x="-20" y="339" width="157" height="157" as="geometry" />
        </mxCell>
        <mxCell id="uzcbsHjcVsQQGVXnVI-_-2" value="" style="shape=flexArrow;endArrow=classic;html=1;rounded=0;strokeColor=none;fillColor=#e1d5e7;" edge="1" parent="1">
          <mxGeometry width="50" height="50" relative="1" as="geometry">
            <mxPoint x="50" y="398" as="sourcePoint" />
            <mxPoint x="50" y="428" as="targetPoint" />
          </mxGeometry>
        </mxCell>
        <mxCell id="1H0GYz0gQWj5M4hLD7Oz-26" value="" style="endArrow=classic;html=1;rounded=0;entryX=0.003;entryY=0.439;entryDx=0;entryDy=0;entryPerimeter=0;" edge="1" parent="1">
          <mxGeometry width="50" height="50" relative="1" as="geometry">
            <mxPoint x="243.65999999999985" y="260" as="sourcePoint" />
            <mxPoint x="159.99999999999977" y="260.24" as="targetPoint" />
          </mxGeometry>
        </mxCell>
      </root>
    </mxGraphModel>
  </diagram>
</mxfile>
